<svg width="194" height="83" viewBox="0 0 194 83" fill="none" xmlns="http://www.w3.org/2000/svg">
  <path d="M129.418 31.3816C122.308 24.2723 109.73 24.7019 109.73 24.7019C109.73 24.7019 97.1521 24.2723 90.0428 31.3816C89.3006 32.1238 88.5974 32.9051 87.9724 33.7254C73.0506 22.1629 59.6521 15.5613 48.0896 9.85819V1.77225L39.3006 5.91287C18.0506 -2.71994 4.53494 -1.1965 1.29276 5.95194C1.29276 5.95194 -8.43381 18.7644 25.4724 49.2723V37.1629C6.40994 15.8347 10.2381 7.43631 11.6834 6.22537C16.9568 1.77225 26.3318 3.10037 36.8396 7.04569L25.4334 12.3973V37.1238C30.5506 42.866 37.3474 49.4285 46.3318 56.8113L48.0896 58.2176V46.5769C48.0896 43.8816 48.7537 39.4676 52.3084 39.4676C55.8631 39.4676 56.449 42.1629 56.449 45.3269V64.3504C63.4803 69.116 71.0193 72.9832 78.9881 75.9129V39.2332C78.9881 31.9285 73.7537 24.6238 63.1287 24.6238C56.9568 24.5848 51.2146 27.8269 48.0896 33.1785V11.9676C64.4568 20.1316 80.8631 30.1316 87.1131 34.741C83.1287 40.4441 83.4803 45.7176 83.4803 51.8113C83.4803 59.116 82.9334 65.2098 90.0428 72.3191C97.1521 79.4285 109.73 78.9988 109.73 78.9988C109.73 78.9988 122.347 79.4285 129.418 72.3191C136.527 65.2098 135.941 59.116 135.941 51.8113C135.941 44.5848 136.527 38.4519 129.418 31.3816ZM113.91 59.4676C113.91 60.8738 113.207 64.3504 109.73 64.3504C106.254 64.3504 105.551 60.8738 105.551 59.4676V43.6863C105.551 40.2879 108.402 39.4285 109.73 39.4285C111.058 39.4285 113.91 40.2488 113.91 43.6863V59.4676ZM186.449 31.3816C179.34 24.2723 166.762 24.7019 166.762 24.7019C166.762 24.7019 154.144 24.2723 147.074 31.3816C139.965 38.491 140.512 44.6238 140.512 51.9285C140.512 59.2332 139.965 65.3269 147.074 72.4363C154.183 79.5457 166.762 79.116 166.762 79.116C166.762 79.116 179.379 79.5457 186.449 72.4363C193.558 65.3269 193.012 59.2332 193.012 51.9285C192.972 44.5848 193.519 38.4519 186.449 31.3816ZM170.902 59.4676C170.902 60.8738 170.199 64.3504 166.722 64.3504C163.246 64.3504 162.543 60.8738 162.543 59.4676V43.6863C162.543 40.2879 165.394 39.4285 166.722 39.4285C168.051 39.4285 170.902 40.2488 170.902 43.6863V59.4676ZM56.4099 78.0223L71.3709 78.3347C66.2146 76.5379 61.2146 74.3504 56.4099 71.7723V78.0223ZM48.0506 78.0223V66.8504C45.5115 65.2098 42.9724 63.4519 40.4724 61.5379C34.6912 57.1629 29.7303 53.0613 25.4334 49.2332V78.0223H48.0506ZM71.3709 78.3347C85.6287 83.2176 98.6756 83.8816 108.363 81.1473C100.59 81.2254 90.4724 80.1316 78.949 75.952V78.0223L71.3709 78.3347Z" fill="white"/>
</svg>
