<svg xmlns="http://www.w3.org/2000/svg" width="1rem" height="1rem" viewBox="0 0 24 24" fill="none" class="injected-svg" data-src="https://cdn.hugeicons.com/icons/wifi-error-02-stroke-sharp.svg" xmlns:xlink="http://www.w3.org/1999/xlink" role="img" color="#f85149">
<path d="M8.25 17.0001C8.67265 16.5774 9.16229 16.2441 9.6906 16.0001M15.75 17.0001C15.3274 16.5774 14.8377 16.2441 14.3094 16.0001" stroke="#f85149" stroke-width="1.5" stroke-linejoin="round"></path>
<path d="M18.5 14.0001C17.4308 13.0692 16.2435 12.4026 15 12.0001M5.5 14.0001C6.59299 13.1038 7.778 12.4525 9 12.046" stroke="#f85149" stroke-width="1.5" stroke-linejoin="round"></path>
<path d="M2 11C3.92227 9.3768 5.94206 8.1353 8 7.50015M22 10.9999C20.0778 9.37675 18.0579 8.13529 16 7.50015" stroke="#f85149" stroke-width="1.5" stroke-linejoin="round"></path>
<path d="M12 20H12.0118" stroke="#f85149" stroke-width="1.5" stroke-linecap="round" stroke-linejoin="round"></path>
<path d="M12.0001 17L9.5 3.99994H14.5L12.0001 17Z" stroke="#f85149" stroke-width="1.5" stroke-linecap="round" stroke-linejoin="round"></path>
</svg>
