<svg xmlns="http://www.w3.org/2000/svg" width="1rem" height="1rem" viewBox="0 0 24 24" fill="none" class="injected-svg" data-src="https://cdn.hugeicons.com/icons/cursor-info-02-stroke-rounded.svg" xmlns:xlink="http://www.w3.org/1999/xlink" role="img" color="#4493f8">
  <path d="M17.5 19.0987C17.5 18.0987 18.4 17.7124 18.4 17C18.4 15.5643 16.375 15.4112 16.375 16.7612M22 17.5C22 19.9853 19.9853 22 17.5 22C15.0147 22 13 19.9853 13 17.5C13 15.0147 15.0147 13 17.5 13C19.9853 13 22 15.0147 22 17.5Z" stroke="#4493f8" stroke-width="1.5" stroke-linecap="round" stroke-linejoin="round"></path>
  <path d="M2.38086 2.46562C4.21503 0.490411 18.0114 5.32901 18 7.09558C17.9871 9.09884 12.6121 9.71513 11.1223 10.1331C10.2265 10.3844 9.98651 10.6421 9.77993 11.5815C8.84436 15.8362 8.37464 17.9524 7.3041 17.9997C5.59766 18.0751 0.590865 4.39327 2.38086 2.46562Z" stroke="#4493f8" stroke-width="1.5"></path>
</svg>
