<svg xmlns="http://www.w3.org/2000/svg" width="1rem" height="1rem" viewBox="0 0 24 24" fill="none" class="injected-svg" data-src="https://cdn.hugeicons.com/icons/rotate-right-02-stroke-standard.svg" xmlns:xlink="http://www.w3.org/1999/xlink" role="img" color="#c6b190">
<path d="M10.4782 8.44636L9.50391 11.5L18.3508 6.24487C19.1768 5.76138 20.2515 6.016 20.7512 6.81358C21.251 7.61115 20.9865 8.64966 20.1605 9.13315L15.2658 11.9983L16.9284 16.1198C17.8556 18.4695 17.1772 19.6049 15.4843 20.2695L11.3635 21.6576C9.99268 22.206 8.22231 22.2368 7.24849 20.6827L4.43743 16.1963C3.91819 15.3677 3.86188 14.343 4.28737 13.4658L7.129 7.60758C7.40498 6.86394 8.18008 6.40634 8.9906 6.50855C9.9648 6.6314 10.6391 7.50978 10.4782 8.44636Z" stroke="#c6b190" stroke-width="1.5" stroke-linecap="round" stroke-linejoin="round"></path>
<path d="M2.99999 5.99925C3.90308 4.22219 5.23969 3.0546 7.07104 2.36843C8.34587 1.89077 9.76485 1.90604 11.0593 2.32742C12.0196 2.59947 13.9954 3.49878 14.495 4.99878M14.5 2V5.00317H11.9914" stroke="#c6b190" stroke-width="1.5" stroke-linecap="round" stroke-linejoin="round"></path>
</svg>
